<svg id="mnemonic" xmlns="http://www.w3.org/2000/svg" width="240.0004" height="234.00039" viewBox="0 0 240.0004 234.00039">
  <title>adobe_fonts_brand_illustrationArtboard 1</title>
  <g>
    <rect x="0.0002" y="0.0002" width="240" height="234" rx="42.5" fill="#b6f200"/>
    <rect x="10.0002" y="10.0002" width="220" height="214" rx="36.33495" fill="#1d2600"/>
    <g id="_256" data-name="256">
      <path d="M85.83353,163.54544c0,.96607-.32226,1.28809-1.12695,1.28809H69.29382c-.80469,0-1.12695-.322-1.12695-1.39518V59.02176c0-.69783.32226-1.01985,1.12695-1.01985h53.93831c.96631,0,1.127.322,1.28809,1.127l1.60986,13.41658c.16114.96607-.32226,1.28809-1.37142,1.37142H85.95886v31.25l34.85823-.08333c.80518,0,1.127.16089,1.127,1.127v12.49585c0,.96607-.32178,1.1272-1.127,1.1272H85.83353Z" fill="#f2ffc7"/>
      <path d="M141.0002,102.27559c0-1.127,0-4.02466-.4834-9.49854,0-.80517.16113-.96606.80518-1.28808a99.71844,99.71844,0,0,1,35.3846-6.76172c.80518,0,1.12695.16089,1.12695.96582V99.86079c0,.80493-.32177.96607-1.12695.96607-6.11768-.322-14.45943.85827-17.84029,2.30725v61.03117c0,.80493-.32178,1.12695-1.12695,1.12695l-15.61219-.37537c-.80517,0-1.12695-.322-1.12695-1.127Z" fill="#f2ffc7"/>
    </g>
  </g>
</svg>
